<svg xmlns="http://www.w3.org/2000/svg" width="1200" height="900" viewBox="0 0 1200 900">
<rect width="100%" height="100%" fill="#0f0f1a"/>
<line x1="624.9" y1="60.8" x2="637.3" y2="61.8" stroke="#3a3a5a" stroke-width="0.5" stroke-opacity="0.6"/>
<line x1="624.9" y1="60.8" x2="649.6" y2="63.2" stroke="#3a3a5a" stroke-width="0.5" stroke-opacity="0.6"/>
<line x1="661.9" y1="64.9" x2="674.2" y2="67.1" stroke="#3a3a5a" stroke-width="0.5" stroke-opacity="0.6"/>
<line x1="661.9" y1="64.9" x2="686.4" y2="69.7" stroke="#3a3a5a" stroke-width="0.5" stroke-opacity="0.6"/>
<line x1="698.4" y1="72.6" x2="710.4" y2="76.0" stroke="#3a3a5a" stroke-width="0.5" stroke-opacity="0.6"/>
<line x1="698.4" y1="72.6" x2="722.3" y2="79.7" stroke="#3a3a5a" stroke-width="0.5" stroke-opacity="0.6"/>
<line x1="698.4" y1="72.6" x2="734.0" y2="83.8" stroke="#3a3a5a" stroke-width="0.5" stroke-opacity="0.6"/>
<line x1="698.4" y1="72.6" x2="745.6" y2="88.2" stroke="#3a3a5a" stroke-width="0.5" stroke-opacity="0.6"/>
<line x1="698.4" y1="72.6" x2="757.1" y2="93.0" stroke="#3a3a5a" stroke-width="0.5" stroke-opacity="0.6"/>
<line x1="698.4" y1="72.6" x2="768.4" y2="98.2" stroke="#3a3a5a" stroke-width="0.5" stroke-opacity="0.6"/>
<line x1="698.4" y1="72.6" x2="779.5" y2="103.8" stroke="#3a3a5a" stroke-width="0.5" stroke-opacity="0.6"/>
<line x1="734.0" y1="83.8" x2="710.4" y2="76.0" stroke="#3a3a5a" stroke-width="0.5" stroke-opacity="0.6"/>
<line x1="745.6" y1="88.2" x2="710.4" y2="76.0" stroke="#3a3a5a" stroke-width="0.5" stroke-opacity="0.6"/>
<line x1="757.1" y1="93.0" x2="722.3" y2="79.7" stroke="#3a3a5a" stroke-width="0.5" stroke-opacity="0.6"/>
<line x1="768.4" y1="98.2" x2="722.3" y2="79.7" stroke="#3a3a5a" stroke-width="0.5" stroke-opacity="0.6"/>
<line x1="779.5" y1="103.8" x2="722.3" y2="79.7" stroke="#3a3a5a" stroke-width="0.5" stroke-opacity="0.6"/>
<line x1="790.5" y1="109.7" x2="801.2" y2="115.9" stroke="#3a3a5a" stroke-width="0.5" stroke-opacity="0.6"/>
<line x1="790.5" y1="109.7" x2="811.8" y2="122.5" stroke="#3a3a5a" stroke-width="0.5" stroke-opacity="0.6"/>
<line x1="790.5" y1="109.7" x2="822.1" y2="129.4" stroke="#3a3a5a" stroke-width="0.5" stroke-opacity="0.6"/>
<line x1="832.2" y1="136.7" x2="842.1" y2="144.3" stroke="#3a3a5a" stroke-width="0.5" stroke-opacity="0.6"/>
<line x1="832.2" y1="136.7" x2="851.7" y2="152.1" stroke="#3a3a5a" stroke-width="0.5" stroke-opacity="0.6"/>
<line x1="832.2" y1="136.7" x2="861.1" y2="160.3" stroke="#3a3a5a" stroke-width="0.5" stroke-opacity="0.6"/>
<line x1="832.2" y1="136.7" x2="870.2" y2="168.8" stroke="#3a3a5a" stroke-width="0.5" stroke-opacity="0.6"/>
<line x1="832.2" y1="136.7" x2="879.1" y2="177.5" stroke="#3a3a5a" stroke-width="0.5" stroke-opacity="0.6"/>
<line x1="832.2" y1="136.7" x2="887.6" y2="186.6" stroke="#3a3a5a" stroke-width="0.5" stroke-opacity="0.6"/>
<line x1="832.2" y1="136.7" x2="895.9" y2="195.9" stroke="#3a3a5a" stroke-width="0.5" stroke-opacity="0.6"/>
<line x1="832.2" y1="136.7" x2="903.8" y2="205.5" stroke="#3a3a5a" stroke-width="0.5" stroke-opacity="0.6"/>
<line x1="861.1" y1="160.3" x2="851.7" y2="152.1" stroke="#3a3a5a" stroke-width="0.5" stroke-opacity="0.6"/>
<line x1="870.2" y1="168.8" x2="851.7" y2="152.1" stroke="#3a3a5a" stroke-width="0.5" stroke-opacity="0.6"/>
<line x1="879.1" y1="177.5" x2="842.1" y2="144.3" stroke="#3a3a5a" stroke-width="0.5" stroke-opacity="0.6"/>
<line x1="887.6" y1="186.6" x2="842.1" y2="144.3" stroke="#3a3a5a" stroke-width="0.5" stroke-opacity="0.6"/>
<line x1="895.9" y1="195.9" x2="842.1" y2="144.3" stroke="#3a3a5a" stroke-width="0.5" stroke-opacity="0.6"/>
<line x1="903.8" y1="205.5" x2="842.1" y2="144.3" stroke="#3a3a5a" stroke-width="0.5" stroke-opacity="0.6"/>
<line x1="911.4" y1="215.3" x2="918.8" y2="225.3" stroke="#3a3a5a" stroke-width="0.5" stroke-opacity="0.6"/>
<line x1="925.8" y1="235.6" x2="932.4" y2="246.1" stroke="#3a3a5a" stroke-width="0.5" stroke-opacity="0.6"/>
<line x1="925.8" y1="235.6" x2="938.8" y2="256.8" stroke="#3a3a5a" stroke-width="0.5" stroke-opacity="0.6"/>
<line x1="950.4" y1="278.8" x2="955.7" y2="290.0" stroke="#3a3a5a" stroke-width="0.5" stroke-opacity="0.6"/>
<line x1="960.6" y1="301.5" x2="965.2" y2="313.0" stroke="#3a3a5a" stroke-width="0.5" stroke-opacity="0.6"/>
<line x1="960.6" y1="301.5" x2="969.3" y2="324.8" stroke="#3a3a5a" stroke-width="0.5" stroke-opacity="0.6"/>
<line x1="969.3" y1="324.8" x2="965.2" y2="313.0" stroke="#3a3a5a" stroke-width="0.5" stroke-opacity="0.6"/>
<line x1="989.0" y1="422.0" x2="989.7" y2="434.5" stroke="#3a3a5a" stroke-width="0.5" stroke-opacity="0.6"/>
<line x1="989.0" y1="422.0" x2="990.0" y2="446.9" stroke="#3a3a5a" stroke-width="0.5" stroke-opacity="0.6"/>
<line x1="989.0" y1="422.0" x2="989.9" y2="459.3" stroke="#3a3a5a" stroke-width="0.5" stroke-opacity="0.6"/>
<line x1="989.0" y1="422.0" x2="989.4" y2="471.8" stroke="#3a3a5a" stroke-width="0.5" stroke-opacity="0.6"/>
<line x1="989.0" y1="422.0" x2="988.5" y2="484.2" stroke="#3a3a5a" stroke-width="0.5" stroke-opacity="0.6"/>
<line x1="989.0" y1="422.0" x2="987.2" y2="496.5" stroke="#3a3a5a" stroke-width="0.5" stroke-opacity="0.6"/>
<line x1="989.0" y1="422.0" x2="985.5" y2="508.9" stroke="#3a3a5a" stroke-width="0.5" stroke-opacity="0.6"/>
<line x1="989.0" y1="422.0" x2="983.5" y2="521.1" stroke="#3a3a5a" stroke-width="0.5" stroke-opacity="0.6"/>
<line x1="989.0" y1="422.0" x2="981.0" y2="533.3" stroke="#3a3a5a" stroke-width="0.5" stroke-opacity="0.6"/>
<line x1="989.0" y1="422.0" x2="978.1" y2="545.4" stroke="#3a3a5a" stroke-width="0.5" stroke-opacity="0.6"/>
<line x1="989.0" y1="422.0" x2="974.9" y2="557.4" stroke="#3a3a5a" stroke-width="0.5" stroke-opacity="0.6"/>
<line x1="989.0" y1="422.0" x2="971.3" y2="569.3" stroke="#3a3a5a" stroke-width="0.5" stroke-opacity="0.6"/>
<line x1="989.0" y1="422.0" x2="967.3" y2="581.1" stroke="#3a3a5a" stroke-width="0.5" stroke-opacity="0.6"/>
<line x1="989.0" y1="422.0" x2="962.9" y2="592.8" stroke="#3a3a5a" stroke-width="0.5" stroke-opacity="0.6"/>
<line x1="989.0" y1="422.0" x2="958.2" y2="604.3" stroke="#3a3a5a" stroke-width="0.5" stroke-opacity="0.6"/>
<line x1="989.0" y1="422.0" x2="953.1" y2="615.6" stroke="#3a3a5a" stroke-width="0.5" stroke-opacity="0.6"/>
<line x1="989.0" y1="422.0" x2="947.6" y2="626.8" stroke="#3a3a5a" stroke-width="0.5" stroke-opacity="0.6"/>
<line x1="989.4" y1="471.8" x2="989.9" y2="459.3" stroke="#3a3a5a" stroke-width="0.5" stroke-opacity="0.6"/>
<line x1="988.5" y1="484.2" x2="989.9" y2="459.3" stroke="#3a3a5a" stroke-width="0.5" stroke-opacity="0.6"/>
<line x1="987.2" y1="496.5" x2="989.9" y2="459.3" stroke="#3a3a5a" stroke-width="0.5" stroke-opacity="0.6"/>
<line x1="983.5" y1="521.1" x2="978.1" y2="545.4" stroke="#3a3a5a" stroke-width="0.5" stroke-opacity="0.6"/>
<line x1="983.5" y1="521.1" x2="981.0" y2="533.3" stroke="#3a3a5a" stroke-width="0.5" stroke-opacity="0.6"/>
<line x1="983.5" y1="521.1" x2="985.5" y2="508.9" stroke="#3a3a5a" stroke-width="0.5" stroke-opacity="0.6"/>
<line x1="983.5" y1="521.1" x2="989.9" y2="459.3" stroke="#3a3a5a" stroke-width="0.5" stroke-opacity="0.6"/>
<line x1="981.0" y1="533.3" x2="989.9" y2="459.3" stroke="#3a3a5a" stroke-width="0.5" stroke-opacity="0.6"/>
<line x1="978.1" y1="545.4" x2="974.9" y2="557.4" stroke="#3a3a5a" stroke-width="0.5" stroke-opacity="0.6"/>
<line x1="978.1" y1="545.4" x2="989.9" y2="459.3" stroke="#3a3a5a" stroke-width="0.5" stroke-opacity="0.6"/>
<line x1="971.3" y1="569.3" x2="989.9" y2="459.3" stroke="#3a3a5a" stroke-width="0.5" stroke-opacity="0.6"/>
<line x1="971.3" y1="569.3" x2="987.2" y2="496.5" stroke="#3a3a5a" stroke-width="0.5" stroke-opacity="0.6"/>
<line x1="971.3" y1="569.3" x2="983.5" y2="521.1" stroke="#3a3a5a" stroke-width="0.5" stroke-opacity="0.6"/>
<line x1="967.3" y1="581.1" x2="962.9" y2="592.8" stroke="#3a3a5a" stroke-width="0.5" stroke-opacity="0.6"/>
<line x1="967.3" y1="581.1" x2="989.9" y2="459.3" stroke="#3a3a5a" stroke-width="0.5" stroke-opacity="0.6"/>
<line x1="958.2" y1="604.3" x2="989.9" y2="459.3" stroke="#3a3a5a" stroke-width="0.5" stroke-opacity="0.6"/>
<line x1="953.1" y1="615.6" x2="989.9" y2="459.3" stroke="#3a3a5a" stroke-width="0.5" stroke-opacity="0.6"/>
<line x1="947.6" y1="626.8" x2="989.4" y2="471.8" stroke="#3a3a5a" stroke-width="0.5" stroke-opacity="0.6"/>
<line x1="947.6" y1="626.8" x2="988.5" y2="484.2" stroke="#3a3a5a" stroke-width="0.5" stroke-opacity="0.6"/>
<line x1="947.6" y1="626.8" x2="989.9" y2="459.3" stroke="#3a3a5a" stroke-width="0.5" stroke-opacity="0.6"/>
<line x1="941.8" y1="637.8" x2="935.7" y2="648.6" stroke="#3a3a5a" stroke-width="0.5" stroke-opacity="0.6"/>
<line x1="941.8" y1="637.8" x2="929.2" y2="659.2" stroke="#3a3a5a" stroke-width="0.5" stroke-opacity="0.6"/>
<line x1="941.8" y1="637.8" x2="922.3" y2="669.6" stroke="#3a3a5a" stroke-width="0.5" stroke-opacity="0.6"/>
<line x1="941.8" y1="637.8" x2="915.2" y2="679.7" stroke="#3a3a5a" stroke-width="0.5" stroke-opacity="0.6"/>
<line x1="941.8" y1="637.8" x2="907.7" y2="689.7" stroke="#3a3a5a" stroke-width="0.5" stroke-opacity="0.6"/>
<line x1="941.8" y1="637.8" x2="899.9" y2="699.4" stroke="#3a3a5a" stroke-width="0.5" stroke-opacity="0.6"/>
<line x1="941.8" y1="637.8" x2="891.8" y2="708.8" stroke="#3a3a5a" stroke-width="0.5" stroke-opacity="0.6"/>
<line x1="941.8" y1="637.8" x2="883.4" y2="718.0" stroke="#3a3a5a" stroke-width="0.5" stroke-opacity="0.6"/>
<line x1="941.8" y1="637.8" x2="874.7" y2="726.9" stroke="#3a3a5a" stroke-width="0.5" stroke-opacity="0.6"/>
<line x1="941.8" y1="637.8" x2="865.7" y2="735.5" stroke="#3a3a5a" stroke-width="0.5" stroke-opacity="0.6"/>
<line x1="941.8" y1="637.8" x2="856.5" y2="743.8" stroke="#3a3a5a" stroke-width="0.5" stroke-opacity="0.6"/>
<line x1="941.8" y1="637.8" x2="847.0" y2="751.8" stroke="#3a3a5a" stroke-width="0.5" stroke-opacity="0.6"/>
<line x1="941.8" y1="637.8" x2="837.2" y2="759.6" stroke="#3a3a5a" stroke-width="0.5" stroke-opacity="0.6"/>
<line x1="827.2" y1="767.0" x2="817.0" y2="774.1" stroke="#3a3a5a" stroke-width="0.5" stroke-opacity="0.6"/>
<line x1="827.2" y1="767.0" x2="806.6" y2="780.8" stroke="#3a3a5a" stroke-width="0.5" stroke-opacity="0.6"/>
<line x1="827.2" y1="767.0" x2="795.9" y2="787.2" stroke="#3a3a5a" stroke-width="0.5" stroke-opacity="0.6"/>
<line x1="827.2" y1="767.0" x2="785.0" y2="793.3" stroke="#3a3a5a" stroke-width="0.5" stroke-opacity="0.6"/>
<line x1="827.2" y1="767.0" x2="774.0" y2="799.0" stroke="#3a3a5a" stroke-width="0.5" stroke-opacity="0.6"/>
<line x1="827.2" y1="767.0" x2="762.8" y2="804.4" stroke="#3a3a5a" stroke-width="0.5" stroke-opacity="0.6"/>
<line x1="827.2" y1="767.0" x2="751.4" y2="809.4" stroke="#3a3a5a" stroke-width="0.5" stroke-opacity="0.6"/>
<line x1="774.0" y1="799.0" x2="762.8" y2="804.4" stroke="#3a3a5a" stroke-width="0.5" stroke-opacity="0.6"/>
<line x1="739.9" y1="814.1" x2="728.2" y2="818.3" stroke="#3a3a5a" stroke-width="0.5" stroke-opacity="0.6"/>
<line x1="739.9" y1="814.1" x2="716.4" y2="822.2" stroke="#3a3a5a" stroke-width="0.5" stroke-opacity="0.6"/>
<line x1="739.9" y1="814.1" x2="704.4" y2="825.8" stroke="#3a3a5a" stroke-width="0.5" stroke-opacity="0.6"/>
<line x1="739.9" y1="814.1" x2="692.4" y2="828.9" stroke="#3a3a5a" stroke-width="0.5" stroke-opacity="0.6"/>
<line x1="739.9" y1="814.1" x2="680.3" y2="831.6" stroke="#3a3a5a" stroke-width="0.5" stroke-opacity="0.6"/>
<line x1="668.1" y1="834.0" x2="655.8" y2="836.0" stroke="#3a3a5a" stroke-width="0.5" stroke-opacity="0.6"/>
<line x1="668.1" y1="834.0" x2="643.4" y2="837.6" stroke="#3a3a5a" stroke-width="0.5" stroke-opacity="0.6"/>
<line x1="668.1" y1="834.0" x2="631.1" y2="838.8" stroke="#3a3a5a" stroke-width="0.5" stroke-opacity="0.6"/>
<line x1="618.7" y1="839.6" x2="606.2" y2="840.0" stroke="#3a3a5a" stroke-width="0.5" stroke-opacity="0.6"/>
<line x1="593.8" y1="840.0" x2="581.3" y2="839.6" stroke="#3a3a5a" stroke-width="0.5" stroke-opacity="0.6"/>
<line x1="593.8" y1="840.0" x2="568.9" y2="838.8" stroke="#3a3a5a" stroke-width="0.5" stroke-opacity="0.6"/>
<line x1="593.8" y1="840.0" x2="556.6" y2="837.6" stroke="#3a3a5a" stroke-width="0.5" stroke-opacity="0.6"/>
<line x1="593.8" y1="840.0" x2="544.2" y2="836.0" stroke="#3a3a5a" stroke-width="0.5" stroke-opacity="0.6"/>
<line x1="593.8" y1="840.0" x2="531.9" y2="834.0" stroke="#3a3a5a" stroke-width="0.5" stroke-opacity="0.6"/>
<line x1="593.8" y1="840.0" x2="519.7" y2="831.6" stroke="#3a3a5a" stroke-width="0.5" stroke-opacity="0.6"/>
<line x1="593.8" y1="840.0" x2="507.6" y2="828.9" stroke="#3a3a5a" stroke-width="0.5" stroke-opacity="0.6"/>
<line x1="593.8" y1="840.0" x2="495.6" y2="825.8" stroke="#3a3a5a" stroke-width="0.5" stroke-opacity="0.6"/>
<line x1="593.8" y1="840.0" x2="483.6" y2="822.2" stroke="#3a3a5a" stroke-width="0.5" stroke-opacity="0.6"/>
<line x1="471.8" y1="818.3" x2="460.1" y2="814.1" stroke="#3a3a5a" stroke-width="0.5" stroke-opacity="0.6"/>
<line x1="471.8" y1="818.3" x2="448.6" y2="809.4" stroke="#3a3a5a" stroke-width="0.5" stroke-opacity="0.6"/>
<line x1="471.8" y1="818.3" x2="437.2" y2="804.4" stroke="#3a3a5a" stroke-width="0.5" stroke-opacity="0.6"/>
<line x1="471.8" y1="818.3" x2="426.0" y2="799.0" stroke="#3a3a5a" stroke-width="0.5" stroke-opacity="0.6"/>
<line x1="471.8" y1="818.3" x2="415.0" y2="793.3" stroke="#3a3a5a" stroke-width="0.5" stroke-opacity="0.6"/>
<line x1="404.1" y1="787.2" x2="393.4" y2="780.8" stroke="#3a3a5a" stroke-width="0.5" stroke-opacity="0.6"/>
<line x1="404.1" y1="787.2" x2="383.0" y2="774.1" stroke="#3a3a5a" stroke-width="0.5" stroke-opacity="0.6"/>
<line x1="404.1" y1="787.2" x2="372.8" y2="767.0" stroke="#3a3a5a" stroke-width="0.5" stroke-opacity="0.6"/>
<line x1="404.1" y1="787.2" x2="362.8" y2="759.6" stroke="#3a3a5a" stroke-width="0.5" stroke-opacity="0.6"/>
<line x1="404.1" y1="787.2" x2="353.0" y2="751.8" stroke="#3a3a5a" stroke-width="0.5" stroke-opacity="0.6"/>
<line x1="404.1" y1="787.2" x2="343.5" y2="743.8" stroke="#3a3a5a" stroke-width="0.5" stroke-opacity="0.6"/>
<line x1="404.1" y1="787.2" x2="334.3" y2="735.5" stroke="#3a3a5a" stroke-width="0.5" stroke-opacity="0.6"/>
<line x1="325.3" y1="726.9" x2="316.6" y2="718.0" stroke="#3a3a5a" stroke-width="0.5" stroke-opacity="0.6"/>
<line x1="325.3" y1="726.9" x2="308.2" y2="708.8" stroke="#3a3a5a" stroke-width="0.5" stroke-opacity="0.6"/>
<line x1="325.3" y1="726.9" x2="300.1" y2="699.4" stroke="#3a3a5a" stroke-width="0.5" stroke-opacity="0.6"/>
<line x1="325.3" y1="726.9" x2="292.3" y2="689.7" stroke="#3a3a5a" stroke-width="0.5" stroke-opacity="0.6"/>
<line x1="325.3" y1="726.9" x2="284.8" y2="679.7" stroke="#3a3a5a" stroke-width="0.5" stroke-opacity="0.6"/>
<line x1="325.3" y1="726.9" x2="277.7" y2="669.6" stroke="#3a3a5a" stroke-width="0.5" stroke-opacity="0.6"/>
<line x1="325.3" y1="726.9" x2="270.8" y2="659.2" stroke="#3a3a5a" stroke-width="0.5" stroke-opacity="0.6"/>
<line x1="325.3" y1="726.9" x2="264.3" y2="648.6" stroke="#3a3a5a" stroke-width="0.5" stroke-opacity="0.6"/>
<line x1="325.3" y1="726.9" x2="258.2" y2="637.8" stroke="#3a3a5a" stroke-width="0.5" stroke-opacity="0.6"/>
<line x1="325.3" y1="726.9" x2="252.4" y2="626.8" stroke="#3a3a5a" stroke-width="0.5" stroke-opacity="0.6"/>
<line x1="325.3" y1="726.9" x2="246.9" y2="615.6" stroke="#3a3a5a" stroke-width="0.5" stroke-opacity="0.6"/>
<line x1="325.3" y1="726.9" x2="241.8" y2="604.3" stroke="#3a3a5a" stroke-width="0.5" stroke-opacity="0.6"/>
<line x1="325.3" y1="726.9" x2="237.1" y2="592.8" stroke="#3a3a5a" stroke-width="0.5" stroke-opacity="0.6"/>
<line x1="325.3" y1="726.9" x2="232.7" y2="581.1" stroke="#3a3a5a" stroke-width="0.5" stroke-opacity="0.6"/>
<line x1="325.3" y1="726.9" x2="228.7" y2="569.3" stroke="#3a3a5a" stroke-width="0.5" stroke-opacity="0.6"/>
<line x1="325.3" y1="726.9" x2="225.1" y2="557.4" stroke="#3a3a5a" stroke-width="0.5" stroke-opacity="0.6"/>
<line x1="221.9" y1="545.4" x2="219.0" y2="533.3" stroke="#3a3a5a" stroke-width="0.5" stroke-opacity="0.6"/>
<line x1="221.9" y1="545.4" x2="216.5" y2="521.1" stroke="#3a3a5a" stroke-width="0.5" stroke-opacity="0.6"/>
<line x1="221.9" y1="545.4" x2="214.5" y2="508.9" stroke="#3a3a5a" stroke-width="0.5" stroke-opacity="0.6"/>
<line x1="221.9" y1="545.4" x2="212.8" y2="496.5" stroke="#3a3a5a" stroke-width="0.5" stroke-opacity="0.6"/>
<line x1="221.9" y1="545.4" x2="211.5" y2="484.2" stroke="#3a3a5a" stroke-width="0.5" stroke-opacity="0.6"/>
<line x1="221.9" y1="545.4" x2="210.6" y2="471.8" stroke="#3a3a5a" stroke-width="0.5" stroke-opacity="0.6"/>
<line x1="210.1" y1="459.3" x2="210.0" y2="446.9" stroke="#3a3a5a" stroke-width="0.5" stroke-opacity="0.6"/>
<line x1="210.1" y1="459.3" x2="210.3" y2="434.5" stroke="#3a3a5a" stroke-width="0.5" stroke-opacity="0.6"/>
<line x1="210.1" y1="459.3" x2="211.0" y2="422.0" stroke="#3a3a5a" stroke-width="0.5" stroke-opacity="0.6"/>
<line x1="210.1" y1="459.3" x2="212.1" y2="409.6" stroke="#3a3a5a" stroke-width="0.5" stroke-opacity="0.6"/>
<line x1="210.1" y1="459.3" x2="213.6" y2="397.3" stroke="#3a3a5a" stroke-width="0.5" stroke-opacity="0.6"/>
<line x1="210.1" y1="459.3" x2="215.5" y2="385.0" stroke="#3a3a5a" stroke-width="0.5" stroke-opacity="0.6"/>
<line x1="217.7" y1="372.8" x2="220.4" y2="360.6" stroke="#3a3a5a" stroke-width="0.5" stroke-opacity="0.6"/>
<line x1="217.7" y1="372.8" x2="223.4" y2="348.6" stroke="#3a3a5a" stroke-width="0.5" stroke-opacity="0.6"/>
<line x1="217.7" y1="372.8" x2="226.8" y2="336.6" stroke="#3a3a5a" stroke-width="0.5" stroke-opacity="0.6"/>
<line x1="217.7" y1="372.8" x2="230.7" y2="324.8" stroke="#3a3a5a" stroke-width="0.5" stroke-opacity="0.6"/>
<line x1="217.7" y1="372.8" x2="234.8" y2="313.0" stroke="#3a3a5a" stroke-width="0.5" stroke-opacity="0.6"/>
<line x1="217.7" y1="372.8" x2="239.4" y2="301.5" stroke="#3a3a5a" stroke-width="0.5" stroke-opacity="0.6"/>
<line x1="217.7" y1="372.8" x2="244.3" y2="290.0" stroke="#3a3a5a" stroke-width="0.5" stroke-opacity="0.6"/>
<line x1="217.7" y1="372.8" x2="249.6" y2="278.8" stroke="#3a3a5a" stroke-width="0.5" stroke-opacity="0.6"/>
<line x1="217.7" y1="372.8" x2="255.2" y2="267.7" stroke="#3a3a5a" stroke-width="0.5" stroke-opacity="0.6"/>
<line x1="217.7" y1="372.8" x2="261.2" y2="256.8" stroke="#3a3a5a" stroke-width="0.5" stroke-opacity="0.6"/>
<line x1="267.6" y1="246.1" x2="274.2" y2="235.6" stroke="#3a3a5a" stroke-width="0.5" stroke-opacity="0.6"/>
<line x1="267.6" y1="246.1" x2="281.2" y2="225.3" stroke="#3a3a5a" stroke-width="0.5" stroke-opacity="0.6"/>
<line x1="267.6" y1="246.1" x2="288.6" y2="215.3" stroke="#3a3a5a" stroke-width="0.5" stroke-opacity="0.6"/>
<line x1="267.6" y1="246.1" x2="296.2" y2="205.5" stroke="#3a3a5a" stroke-width="0.5" stroke-opacity="0.6"/>
<line x1="267.6" y1="246.1" x2="304.1" y2="195.9" stroke="#3a3a5a" stroke-width="0.5" stroke-opacity="0.6"/>
<line x1="267.6" y1="246.1" x2="312.4" y2="186.6" stroke="#3a3a5a" stroke-width="0.5" stroke-opacity="0.6"/>
<line x1="267.6" y1="246.1" x2="320.9" y2="177.5" stroke="#3a3a5a" stroke-width="0.5" stroke-opacity="0.6"/>
<line x1="329.8" y1="168.8" x2="338.9" y2="160.3" stroke="#3a3a5a" stroke-width="0.5" stroke-opacity="0.6"/>
<line x1="329.8" y1="168.8" x2="348.3" y2="152.1" stroke="#3a3a5a" stroke-width="0.5" stroke-opacity="0.6"/>
<line x1="329.8" y1="168.8" x2="357.9" y2="144.3" stroke="#3a3a5a" stroke-width="0.5" stroke-opacity="0.6"/>
<line x1="329.8" y1="168.8" x2="367.8" y2="136.7" stroke="#3a3a5a" stroke-width="0.5" stroke-opacity="0.6"/>
<line x1="329.8" y1="168.8" x2="377.9" y2="129.4" stroke="#3a3a5a" stroke-width="0.5" stroke-opacity="0.6"/>
<line x1="329.8" y1="168.8" x2="388.2" y2="122.5" stroke="#3a3a5a" stroke-width="0.5" stroke-opacity="0.6"/>
<line x1="398.8" y1="115.9" x2="409.5" y2="109.7" stroke="#3a3a5a" stroke-width="0.5" stroke-opacity="0.6"/>
<line x1="398.8" y1="115.9" x2="420.5" y2="103.8" stroke="#3a3a5a" stroke-width="0.5" stroke-opacity="0.6"/>
<line x1="398.8" y1="115.9" x2="431.6" y2="98.2" stroke="#3a3a5a" stroke-width="0.5" stroke-opacity="0.6"/>
<line x1="398.8" y1="115.9" x2="442.9" y2="93.0" stroke="#3a3a5a" stroke-width="0.5" stroke-opacity="0.6"/>
<line x1="398.8" y1="115.9" x2="454.4" y2="88.2" stroke="#3a3a5a" stroke-width="0.5" stroke-opacity="0.6"/>
<line x1="466.0" y1="83.8" x2="477.7" y2="79.7" stroke="#3a3a5a" stroke-width="0.5" stroke-opacity="0.6"/>
<line x1="489.6" y1="76.0" x2="501.6" y2="72.6" stroke="#3a3a5a" stroke-width="0.5" stroke-opacity="0.6"/>
<line x1="489.6" y1="76.0" x2="513.6" y2="69.7" stroke="#3a3a5a" stroke-width="0.5" stroke-opacity="0.6"/>
<line x1="489.6" y1="76.0" x2="525.8" y2="67.1" stroke="#3a3a5a" stroke-width="0.5" stroke-opacity="0.6"/>
<circle cx="600.0" cy="60.0" r="6" fill="#F28E2B" opacity="0.85"><title>jest.config</title></circle>
<circle cx="612.4" cy="60.2" r="6" fill="#BAB0AC" opacity="0.85"><title>server</title></circle>
<circle cx="624.9" cy="60.8" r="6" fill="#4E79A7" opacity="0.85"><title>authController</title></circle>
<circle cx="637.3" cy="61.8" r="6" fill="#4E79A7" opacity="0.85"><title>register()</title></circle>
<circle cx="649.6" cy="63.2" r="6" fill="#4E79A7" opacity="0.85"><title>login()</title></circle>
<circle cx="661.9" cy="64.9" r="6" fill="#BAB0AC" opacity="0.85"><title>dlqController</title></circle>
<circle cx="674.2" cy="67.1" r="6" fill="#BAB0AC" opacity="0.85"><title>listDLQ()</title></circle>
<circle cx="686.4" cy="69.7" r="6" fill="#BAB0AC" opacity="0.85"><title>retryDLQ()</title></circle>
<circle cx="698.4" cy="72.6" r="6" fill="#BAB0AC" opacity="0.85"><title>jobController</title></circle>
<circle cx="710.4" cy="76.0" r="6" fill="#BAB0AC" opacity="0.85"><title>verifyQueueAccess()</title></circle>
<circle cx="722.3" cy="79.7" r="6" fill="#BAB0AC" opacity="0.85"><title>verifyJobAccess()</title></circle>
<circle cx="734.0" cy="83.8" r="6" fill="#BAB0AC" opacity="0.85"><title>createJob()</title></circle>
<circle cx="745.6" cy="88.2" r="6" fill="#BAB0AC" opacity="0.85"><title>listJobs()</title></circle>
<circle cx="757.1" cy="93.0" r="6" fill="#BAB0AC" opacity="0.85"><title>getJob()</title></circle>
<circle cx="768.4" cy="98.2" r="6" fill="#BAB0AC" opacity="0.85"><title>retryJob()</title></circle>
<circle cx="779.5" cy="103.8" r="6" fill="#BAB0AC" opacity="0.85"><title>deleteJob()</title></circle>
<circle cx="790.5" cy="109.7" r="6" fill="#FF9DA7" opacity="0.85"><title>projectController</title></circle>
<circle cx="801.2" cy="115.9" r="6" fill="#FF9DA7" opacity="0.85"><title>listProjects()</title></circle>
<circle cx="811.8" cy="122.5" r="6" fill="#FF9DA7" opacity="0.85"><title>createProject()</title></circle>
<circle cx="822.1" cy="129.4" r="6" fill="#FF9DA7" opacity="0.85"><title>deleteProject()</title></circle>
<circle cx="832.2" cy="136.7" r="6" fill="#EDC948" opacity="0.85"><title>queueController</title></circle>
<circle cx="842.1" cy="144.3" r="6" fill="#EDC948" opacity="0.85"><title>getOwnedQueue()</title></circle>
<circle cx="851.7" cy="152.1" r="6" fill="#EDC948" opacity="0.85"><title>verifyProjectOwnership()</title></circle>
<circle cx="861.1" cy="160.3" r="6" fill="#EDC948" opacity="0.85"><title>listQueues()</title></circle>
<circle cx="870.2" cy="168.8" r="6" fill="#EDC948" opacity="0.85"><title>createQueue()</title></circle>
<circle cx="879.1" cy="177.5" r="6" fill="#EDC948" opacity="0.85"><title>updateQueue()</title></circle>
<circle cx="887.6" cy="186.6" r="6" fill="#EDC948" opacity="0.85"><title>pauseQueue()</title></circle>
<circle cx="895.9" cy="195.9" r="6" fill="#EDC948" opacity="0.85"><title>resumeQueue()</title></circle>
<circle cx="903.8" cy="205.5" r="6" fill="#EDC948" opacity="0.85"><title>getQueueStats()</title></circle>
<circle cx="911.4" cy="215.3" r="6" fill="#B07AA1" opacity="0.85"><title>statsController</title></circle>
<circle cx="918.8" cy="225.3" r="6" fill="#B07AA1" opacity="0.85"><title>getDashboardStats()</title></circle>
<circle cx="925.8" cy="235.6" r="6" fill="#E15759" opacity="0.85"><title>workerController</title></circle>
<circle cx="932.4" cy="246.1" r="6" fill="#E15759" opacity="0.85"><title>listWorkers()</title></circle>
<circle cx="938.8" cy="256.8" r="6" fill="#E15759" opacity="0.85"><title>getWorker()</title></circle>
<circle cx="944.8" cy="267.7" r="6" fill="#4E79A7" opacity="0.85"><title>index</title></circle>
<circle cx="950.4" cy="278.8" r="6" fill="#76B7B2" opacity="0.85"><title>auth</title></circle>
<circle cx="955.7" cy="290.0" r="6" fill="#76B7B2" opacity="0.85"><title>authenticate()</title></circle>
<circle cx="960.6" cy="301.5" r="6" fill="#F28E2B" opacity="0.85"><title>validate</title></circle>
<circle cx="965.2" cy="313.0" r="6" fill="#F28E2B" opacity="0.85"><title>errorResponse()</title></circle>
<circle cx="969.3" cy="324.8" r="6" fill="#F28E2B" opacity="0.85"><title>validate()</title></circle>
<circle cx="973.2" cy="336.6" r="6" fill="#FF9DA7" opacity="0.85"><title>auth</title></circle>
<circle cx="976.6" cy="348.6" r="6" fill="#F28E2B" opacity="0.85"><title>dlq</title></circle>
<circle cx="979.6" cy="360.6" r="6" fill="#4E79A7" opacity="0.85"><title>jobs</title></circle>
<circle cx="982.3" cy="372.8" r="6" fill="#59A14F" opacity="0.85"><title>projects</title></circle>
<circle cx="984.5" cy="385.0" r="6" fill="#B07AA1" opacity="0.85"><title>queues</title></circle>
<circle cx="986.4" cy="397.3" r="6" fill="#9C755F" opacity="0.85"><title>stats</title></circle>
<circle cx="987.9" cy="409.6" r="6" fill="#BAB0AC" opacity="0.85"><title>workers</title></circle>
<circle cx="989.0" cy="422.0" r="6" fill="#4E79A7" opacity="0.85"><title>worker</title></circle>
<circle cx="989.7" cy="434.5" r="6" fill="#4E79A7" opacity="0.85"><title>setWorkerId()</title></circle>
<circle cx="990.0" cy="446.9" r="6" fill="#4E79A7" opacity="0.85"><title>getWorkerId()</title></circle>
<circle cx="989.9" cy="459.3" r="6" fill="#4E79A7" opacity="0.85"><title>log()</title></circle>
<circle cx="989.4" cy="471.8" r="6" fill="#4E79A7" opacity="0.85"><title>registerWorker()</title></circle>
<circle cx="988.5" cy="484.2" r="6" fill="#4E79A7" opacity="0.85"><title>sendHeartbeat()</title></circle>
<circle cx="987.2" cy="496.5" r="6" fill="#4E79A7" opacity="0.85"><title>claimJob()</title></circle>
<circle cx="985.5" cy="508.9" r="6" fill="#4E79A7" opacity="0.85"><title>simulateWork()</title></circle>
<circle cx="983.5" cy="521.1" r="6" fill="#4E79A7" opacity="0.85"><title>executeJob()</title></circle>
<circle cx="981.0" cy="533.3" r="6" fill="#4E79A7" opacity="0.85"><title>onJobSuccess()</title></circle>
<circle cx="978.1" cy="545.4" r="6" fill="#4E79A7" opacity="0.85"><title>onJobFailure()</title></circle>
<circle cx="974.9" cy="557.4" r="6" fill="#4E79A7" opacity="0.85"><title>computeRetryDelay()</title></circle>
<circle cx="971.3" cy="569.3" r="6" fill="#4E79A7" opacity="0.85"><title>poll()</title></circle>
<circle cx="967.3" cy="581.1" r="6" fill="#4E79A7" opacity="0.85"><title>processScheduledJobs()</title></circle>
<circle cx="962.9" cy="592.8" r="6" fill="#4E79A7" opacity="0.85"><title>computeNextCronRun()</title></circle>
<circle cx="958.2" cy="604.3" r="6" fill="#4E79A7" opacity="0.85"><title>recoverDeadWorkerJobs()</title></circle>
<circle cx="953.1" cy="615.6" r="6" fill="#4E79A7" opacity="0.85"><title>shutdown()</title></circle>
<circle cx="947.6" cy="626.8" r="6" fill="#4E79A7" opacity="0.85"><title>start()</title></circle>
<circle cx="941.8" cy="637.8" r="6" fill="#E15759" opacity="0.85"><title>App</title></circle>
<circle cx="935.7" cy="648.6" r="6" fill="#E15759" opacity="0.85"><title>react-router-dom/Routes</title></circle>
<circle cx="929.2" cy="659.2" r="6" fill="#E15759" opacity="0.85"><title>react-router-dom/Route</title></circle>
<circle cx="922.3" cy="669.6" r="6" fill="#E15759" opacity="0.85"><title>react-router-dom/Navigate</title></circle>
<circle cx="915.2" cy="679.7" r="6" fill="#E15759" opacity="0.85"><title>./components/Layout/Layout</title></circle>
<circle cx="907.7" cy="689.7" r="6" fill="#E15759" opacity="0.85"><title>./components/ProtectedRoute/ProtectedRoute</title></circle>
<circle cx="899.9" cy="699.4" r="6" fill="#E15759" opacity="0.85"><title>./pages/LoginPage/LoginPage</title></circle>
<circle cx="891.8" cy="708.8" r="6" fill="#E15759" opacity="0.85"><title>./pages/RegisterPage/RegisterPage</title></circle>
<circle cx="883.4" cy="718.0" r="6" fill="#E15759" opacity="0.85"><title>./pages/DashboardPage/DashboardPage</title></circle>
<circle cx="874.7" cy="726.9" r="6" fill="#E15759" opacity="0.85"><title>./pages/QueuesPage/QueuesPage</title></circle>
<circle cx="865.7" cy="735.5" r="6" fill="#E15759" opacity="0.85"><title>./pages/QueueDetailPage/QueueDetailPage</title></circle>
<circle cx="856.5" cy="743.8" r="6" fill="#E15759" opacity="0.85"><title>./pages/WorkersPage/WorkersPage</title></circle>
<circle cx="847.0" cy="751.8" r="6" fill="#E15759" opacity="0.85"><title>./pages/DeadLetterPage/DeadLetterPage</title></circle>
<circle cx="837.2" cy="759.6" r="6" fill="#E15759" opacity="0.85"><title>App()</title></circle>
<circle cx="827.2" cy="767.0" r="6" fill="#9C755F" opacity="0.85"><title>JobDetailModal</title></circle>
<circle cx="817.0" cy="774.1" r="6" fill="#9C755F" opacity="0.85"><title>react/useEffect</title></circle>
<circle cx="806.6" cy="780.8" r="6" fill="#9C755F" opacity="0.85"><title>react/useState</title></circle>
<circle cx="795.9" cy="787.2" r="6" fill="#9C755F" opacity="0.85"><title>../services/api/api</title></circle>
<circle cx="785.0" cy="793.3" r="6" fill="#9C755F" opacity="0.85"><title>../components/StatusBadge/StatusBadge</title></circle>
<circle cx="774.0" cy="799.0" r="6" fill="#9C755F" opacity="0.85"><title>JobDetailModal()</title></circle>
<circle cx="762.8" cy="804.4" r="6" fill="#9C755F" opacity="0.85"><title>fmt()</title></circle>
<circle cx="751.4" cy="809.4" r="6" fill="#9C755F" opacity="0.85"><title>InfoItem()</title></circle>
<circle cx="739.9" cy="814.1" r="6" fill="#59A14F" opacity="0.85"><title>Layout</title></circle>
<circle cx="728.2" cy="818.3" r="6" fill="#59A14F" opacity="0.85"><title>react/useState</title></circle>
<circle cx="716.4" cy="822.2" r="6" fill="#59A14F" opacity="0.85"><title>react-router-dom/NavLink</title></circle>
<circle cx="704.4" cy="825.8" r="6" fill="#59A14F" opacity="0.85"><title>react-router-dom/Outlet</title></circle>
<circle cx="692.4" cy="828.9" r="6" fill="#59A14F" opacity="0.85"><title>../context/AuthContext/useAuth</title></circle>
<circle cx="680.3" cy="831.6" r="6" fill="#59A14F" opacity="0.85"><title>Layout()</title></circle>
<circle cx="668.1" cy="834.0" r="6" fill="#B07AA1" opacity="0.85"><title>ProtectedRoute</title></circle>
<circle cx="655.8" cy="836.0" r="6" fill="#B07AA1" opacity="0.85"><title>react-router-dom/Navigate</title></circle>
<circle cx="643.4" cy="837.6" r="6" fill="#B07AA1" opacity="0.85"><title>../context/AuthContext/useAuth</title></circle>
<circle cx="631.1" cy="838.8" r="6" fill="#B07AA1" opacity="0.85"><title>ProtectedRoute()</title></circle>
<circle cx="618.7" cy="839.6" r="6" fill="#EDC948" opacity="0.85"><title>StatusBadge</title></circle>
<circle cx="606.2" cy="840.0" r="6" fill="#EDC948" opacity="0.85"><title>StatusBadge()</title></circle>
<circle cx="593.8" cy="840.0" r="6" fill="#59A14F" opacity="0.85"><title>AuthContext</title></circle>
<circle cx="581.3" cy="839.6" r="6" fill="#59A14F" opacity="0.85"><title>react/createContext</title></circle>
<circle cx="568.9" cy="838.8" r="6" fill="#59A14F" opacity="0.85"><title>react/useContext</title></circle>
<circle cx="556.6" cy="837.6" r="6" fill="#59A14F" opacity="0.85"><title>react/useState</title></circle>
<circle cx="544.2" cy="836.0" r="6" fill="#59A14F" opacity="0.85"><title>react/useEffect</title></circle>
<circle cx="531.9" cy="834.0" r="6" fill="#59A14F" opacity="0.85"><title>react/useCallback</title></circle>
<circle cx="519.7" cy="831.6" r="6" fill="#59A14F" opacity="0.85"><title>react-router-dom/useNavigate</title></circle>
<circle cx="507.6" cy="828.9" r="6" fill="#59A14F" opacity="0.85"><title>../services/api/api</title></circle>
<circle cx="495.6" cy="825.8" r="6" fill="#59A14F" opacity="0.85"><title>AuthProvider()</title></circle>
<circle cx="483.6" cy="822.2" r="6" fill="#59A14F" opacity="0.85"><title>useAuth()</title></circle>
<circle cx="471.8" cy="818.3" r="6" fill="#76B7B2" opacity="0.85"><title>usePolling</title></circle>
<circle cx="460.1" cy="814.1" r="6" fill="#76B7B2" opacity="0.85"><title>react/useState</title></circle>
<circle cx="448.6" cy="809.4" r="6" fill="#76B7B2" opacity="0.85"><title>react/useEffect</title></circle>
<circle cx="437.2" cy="804.4" r="6" fill="#76B7B2" opacity="0.85"><title>react/useCallback</title></circle>
<circle cx="426.0" cy="799.0" r="6" fill="#76B7B2" opacity="0.85"><title>react/useRef</title></circle>
<circle cx="415.0" cy="793.3" r="6" fill="#76B7B2" opacity="0.85"><title>usePolling()</title></circle>
<circle cx="404.1" cy="787.2" r="6" fill="#FF9DA7" opacity="0.85"><title>main</title></circle>
<circle cx="393.4" cy="780.8" r="6" fill="#FF9DA7" opacity="0.85"><title>react/StrictMode</title></circle>
<circle cx="383.0" cy="774.1" r="6" fill="#FF9DA7" opacity="0.85"><title>react-dom/client/createRoot</title></circle>
<circle cx="372.8" cy="767.0" r="6" fill="#FF9DA7" opacity="0.85"><title>react-router-dom/BrowserRouter</title></circle>
<circle cx="362.8" cy="759.6" r="6" fill="#FF9DA7" opacity="0.85"><title>react-hot-toast/Toaster</title></circle>
<circle cx="353.0" cy="751.8" r="6" fill="#FF9DA7" opacity="0.85"><title>./context/AuthContext/AuthProvider</title></circle>
<circle cx="343.5" cy="743.8" r="6" fill="#FF9DA7" opacity="0.85"><title>./App/App</title></circle>
<circle cx="334.3" cy="735.5" r="6" fill="#FF9DA7" opacity="0.85"><title>./index.css</title></circle>
<circle cx="325.3" cy="726.9" r="6" fill="#F28E2B" opacity="0.85"><title>DashboardPage</title></circle>
<circle cx="316.6" cy="718.0" r="6" fill="#F28E2B" opacity="0.85"><title>react/useState</title></circle>
<circle cx="308.2" cy="708.8" r="6" fill="#F28E2B" opacity="0.85"><title>recharts/BarChart</title></circle>
<circle cx="300.1" cy="699.4" r="6" fill="#F28E2B" opacity="0.85"><title>recharts/Bar</title></circle>
<circle cx="292.3" cy="689.7" r="6" fill="#F28E2B" opacity="0.85"><title>recharts/LineChart</title></circle>
<circle cx="284.8" cy="679.7" r="6" fill="#F28E2B" opacity="0.85"><title>recharts/Line</title></circle>
<circle cx="277.7" cy="669.6" r="6" fill="#F28E2B" opacity="0.85"><title>recharts/XAxis</title></circle>
<circle cx="270.8" cy="659.2" r="6" fill="#F28E2B" opacity="0.85"><title>recharts/YAxis</title></circle>
<circle cx="264.3" cy="648.6" r="6" fill="#F28E2B" opacity="0.85"><title>recharts/CartesianGrid</title></circle>
<circle cx="258.2" cy="637.8" r="6" fill="#F28E2B" opacity="0.85"><title>recharts/Tooltip</title></circle>
<circle cx="252.4" cy="626.8" r="6" fill="#F28E2B" opacity="0.85"><title>recharts/ResponsiveContainer</title></circle>
<circle cx="246.9" cy="615.6" r="6" fill="#F28E2B" opacity="0.85"><title>recharts/Legend</title></circle>
<circle cx="241.8" cy="604.3" r="6" fill="#F28E2B" opacity="0.85"><title>../services/api/api</title></circle>
<circle cx="237.1" cy="592.8" r="6" fill="#F28E2B" opacity="0.85"><title>../hooks/usePolling/usePolling</title></circle>
<circle cx="232.7" cy="581.1" r="6" fill="#F28E2B" opacity="0.85"><title>../components/StatusBadge/StatusBadge</title></circle>
<circle cx="228.7" cy="569.3" r="6" fill="#F28E2B" opacity="0.85"><title>DashboardPage()</title></circle>
<circle cx="225.1" cy="557.4" r="6" fill="#F28E2B" opacity="0.85"><title>StatCard()</title></circle>
<circle cx="221.9" cy="545.4" r="6" fill="#4E79A7" opacity="0.85"><title>DeadLetterPage</title></circle>
<circle cx="219.0" cy="533.3" r="6" fill="#4E79A7" opacity="0.85"><title>react/useEffect</title></circle>
<circle cx="216.5" cy="521.1" r="6" fill="#4E79A7" opacity="0.85"><title>react/useState</title></circle>
<circle cx="214.5" cy="508.9" r="6" fill="#4E79A7" opacity="0.85"><title>react/useCallback</title></circle>
<circle cx="212.8" cy="496.5" r="6" fill="#4E79A7" opacity="0.85"><title>../services/api/api</title></circle>
<circle cx="211.5" cy="484.2" r="6" fill="#4E79A7" opacity="0.85"><title>react-hot-toast/toast</title></circle>
<circle cx="210.6" cy="471.8" r="6" fill="#4E79A7" opacity="0.85"><title>DeadLetterPage()</title></circle>
<circle cx="210.1" cy="459.3" r="6" fill="#F28E2B" opacity="0.85"><title>LoginPage</title></circle>
<circle cx="210.0" cy="446.9" r="6" fill="#F28E2B" opacity="0.85"><title>react/useState</title></circle>
<circle cx="210.3" cy="434.5" r="6" fill="#F28E2B" opacity="0.85"><title>react-router-dom/Link</title></circle>
<circle cx="211.0" cy="422.0" r="6" fill="#F28E2B" opacity="0.85"><title>react-router-dom/useNavigate</title></circle>
<circle cx="212.1" cy="409.6" r="6" fill="#F28E2B" opacity="0.85"><title>../context/AuthContext/useAuth</title></circle>
<circle cx="213.6" cy="397.3" r="6" fill="#F28E2B" opacity="0.85"><title>react-hot-toast/toast</title></circle>
<circle cx="215.5" cy="385.0" r="6" fill="#F28E2B" opacity="0.85"><title>LoginPage()</title></circle>
<circle cx="217.7" cy="372.8" r="6" fill="#76B7B2" opacity="0.85"><title>QueueDetailPage</title></circle>
<circle cx="220.4" cy="360.6" r="6" fill="#76B7B2" opacity="0.85"><title>react/useEffect</title></circle>
<circle cx="223.4" cy="348.6" r="6" fill="#76B7B2" opacity="0.85"><title>react/useState</title></circle>
<circle cx="226.8" cy="336.6" r="6" fill="#76B7B2" opacity="0.85"><title>react/useCallback</title></circle>
<circle cx="230.7" cy="324.8" r="6" fill="#76B7B2" opacity="0.85"><title>react-router-dom/useParams</title></circle>
<circle cx="234.8" cy="313.0" r="6" fill="#76B7B2" opacity="0.85"><title>react-router-dom/Link</title></circle>
<circle cx="239.4" cy="301.5" r="6" fill="#76B7B2" opacity="0.85"><title>../services/api/api</title></circle>
<circle cx="244.3" cy="290.0" r="6" fill="#76B7B2" opacity="0.85"><title>../components/StatusBadge/StatusBadge</title></circle>
<circle cx="249.6" cy="278.8" r="6" fill="#76B7B2" opacity="0.85"><title>../components/JobDetailModal/JobDetailModal</title></circle>
<circle cx="255.2" cy="267.7" r="6" fill="#76B7B2" opacity="0.85"><title>react-hot-toast/toast</title></circle>
<circle cx="261.2" cy="256.8" r="6" fill="#76B7B2" opacity="0.85"><title>QueueDetailPage()</title></circle>
<circle cx="267.6" cy="246.1" r="6" fill="#B07AA1" opacity="0.85"><title>QueuesPage</title></circle>
<circle cx="274.2" cy="235.6" r="6" fill="#B07AA1" opacity="0.85"><title>react/useEffect</title></circle>
<circle cx="281.2" cy="225.3" r="6" fill="#B07AA1" opacity="0.85"><title>react/useState</title></circle>
<circle cx="288.6" cy="215.3" r="6" fill="#B07AA1" opacity="0.85"><title>react-router-dom/Link</title></circle>
<circle cx="296.2" cy="205.5" r="6" fill="#B07AA1" opacity="0.85"><title>../services/api/api</title></circle>
<circle cx="304.1" cy="195.9" r="6" fill="#B07AA1" opacity="0.85"><title>../components/StatusBadge/StatusBadge</title></circle>
<circle cx="312.4" cy="186.6" r="6" fill="#B07AA1" opacity="0.85"><title>react-hot-toast/toast</title></circle>
<circle cx="320.9" cy="177.5" r="6" fill="#B07AA1" opacity="0.85"><title>QueuesPage()</title></circle>
<circle cx="329.8" cy="168.8" r="6" fill="#E15759" opacity="0.85"><title>RegisterPage</title></circle>
<circle cx="338.9" cy="160.3" r="6" fill="#E15759" opacity="0.85"><title>react/useState</title></circle>
<circle cx="348.3" cy="152.1" r="6" fill="#E15759" opacity="0.85"><title>react-router-dom/Link</title></circle>
<circle cx="357.9" cy="144.3" r="6" fill="#E15759" opacity="0.85"><title>react-router-dom/useNavigate</title></circle>
<circle cx="367.8" cy="136.7" r="6" fill="#E15759" opacity="0.85"><title>../context/AuthContext/useAuth</title></circle>
<circle cx="377.9" cy="129.4" r="6" fill="#E15759" opacity="0.85"><title>react-hot-toast/toast</title></circle>
<circle cx="388.2" cy="122.5" r="6" fill="#E15759" opacity="0.85"><title>RegisterPage()</title></circle>
<circle cx="398.8" cy="115.9" r="6" fill="#EDC948" opacity="0.85"><title>WorkersPage</title></circle>
<circle cx="409.5" cy="109.7" r="6" fill="#EDC948" opacity="0.85"><title>react/useState</title></circle>
<circle cx="420.5" cy="103.8" r="6" fill="#EDC948" opacity="0.85"><title>../services/api/api</title></circle>
<circle cx="431.6" cy="98.2" r="6" fill="#EDC948" opacity="0.85"><title>../hooks/usePolling/usePolling</title></circle>
<circle cx="442.9" cy="93.0" r="6" fill="#EDC948" opacity="0.85"><title>../components/StatusBadge/StatusBadge</title></circle>
<circle cx="454.4" cy="88.2" r="6" fill="#EDC948" opacity="0.85"><title>WorkersPage()</title></circle>
<circle cx="466.0" cy="83.8" r="6" fill="#59A14F" opacity="0.85"><title>api</title></circle>
<circle cx="477.7" cy="79.7" r="6" fill="#59A14F" opacity="0.85"><title>axios/axios</title></circle>
<circle cx="489.6" cy="76.0" r="6" fill="#9C755F" opacity="0.85"><title>vite.config</title></circle>
<circle cx="501.6" cy="72.6" r="6" fill="#9C755F" opacity="0.85"><title>vite/defineConfig</title></circle>
<circle cx="513.6" cy="69.7" r="6" fill="#9C755F" opacity="0.85"><title>@vitejs/plugin-react/react</title></circle>
<circle cx="525.8" cy="67.1" r="6" fill="#9C755F" opacity="0.85"><title>@tailwindcss/vite/tailwindcss</title></circle>
<circle cx="538.1" cy="64.9" r="6" fill="#9C755F" opacity="0.85"><title>auth.test</title></circle>
<circle cx="550.4" cy="63.2" r="6" fill="#EDC948" opacity="0.85"><title>jobs.test</title></circle>
<circle cx="562.7" cy="61.8" r="6" fill="#FF9DA7" opacity="0.85"><title>queue.test</title></circle>
<circle cx="575.1" cy="60.8" r="6" fill="#E15759" opacity="0.85"><title>setup</title></circle>
<circle cx="587.6" cy="60.2" r="6" fill="#76B7B2" opacity="0.85"><title>worker.test</title></circle>
</svg>
